<?xml version="1.0" standalone="no"?>
<!DOCTYPE svg PUBLIC "-//W3C//DTD SVG 20010904//EN"
 "http://www.w3.org/TR/2001/REC-SVG-20010904/DTD/svg10.dtd">
<svg version="1.0" xmlns="http://www.w3.org/2000/svg"
 width="948.000000pt" height="948.000000pt" viewBox="0 0 948.000000 948.000000"
 preserveAspectRatio="xMidYMid meet">
<metadata>
Created by potrace 1.14, written by Peter Selinger 2001-2017
</metadata>
<g transform="translate(0.000000,948.000000) scale(0.100000,-0.100000)"
fill="#000000" stroke="none">
<path d="M5295 9425 c-49 -24 -99 -45 -110 -47 -11 -2 -22 -6 -25 -9 -6 -8
-270 -69 -320 -75 -19 -2 -48 -6 -65 -9 -16 -2 -54 -7 -82 -10 -29 -2 -65 -7
-80 -9 -16 -3 -59 -8 -98 -11 -38 -4 -83 -9 -100 -11 -16 -2 -55 -6 -85 -10
-30 -3 -71 -7 -90 -10 -19 -2 -57 -6 -84 -9 -27 -3 -52 -8 -56 -10 -7 -4 -48
-12 -104 -19 -11 -2 -28 -6 -36 -9 -8 -3 -46 -13 -85 -22 -38 -10 -76 -22 -82
-28 -7 -5 -13 -7 -13 -4 0 12 -242 -101 -248 -115 -2 -5 -9 -8 -15 -8 -16 0
-230 -145 -271 -184 -20 -18 -36 -31 -36 -28 0 5 -182 -180 -204 -208 -7 -8
-23 -31 -36 -50 -13 -19 -27 -37 -30 -40 -14 -12 -70 -112 -108 -195 -62 -133
-64 -136 -107 -159 -44 -23 -178 -99 -210 -119 -119 -72 -383 -257 -463 -323
-12 -10 -34 -28 -48 -39 -33 -26 -56 -47 -145 -126 -189 -171 -387 -384 -535
-579 -27 -35 -53 -69 -57 -75 -19 -23 -158 -228 -182 -267 -101 -169 -295
-537 -295 -561 0 -4 -11 -30 -24 -59 -13 -29 -40 -98 -60 -153 -20 -55 -40
-107 -43 -115 -3 -8 -7 -19 -8 -25 -2 -5 -14 -47 -29 -93 -26 -84 -62 -212
-80 -289 -15 -62 -56 -271 -61 -313 -2 -14 -6 -41 -9 -60 -3 -19 -8 -57 -12
-85 -3 -27 -8 -61 -10 -75 -25 -185 -24 -731 2 -920 2 -19 7 -57 10 -85 8 -72
18 -137 30 -200 3 -16 8 -43 10 -60 3 -16 7 -41 10 -55 3 -14 6 -27 6 -30 1
-3 5 -21 10 -40 5 -19 11 -46 13 -60 3 -14 9 -41 15 -60 5 -19 21 -76 35 -127
25 -91 77 -254 98 -303 6 -14 11 -27 11 -30 3 -17 40 -107 47 -114 5 -6 9 -16
9 -24 0 -17 10 -40 111 -247 75 -153 152 -297 175 -326 6 -8 24 -38 40 -66 16
-29 32 -53 37 -53 4 0 7 -5 7 -11 0 -21 270 -387 346 -469 13 -14 49 -54 81
-89 118 -132 269 -276 418 -401 55 -46 102 -87 103 -92 2 -4 8 -8 12 -8 7 0
158 -109 207 -150 7 -5 16 -10 21 -10 5 0 17 -9 27 -20 10 -11 24 -20 31 -20
7 0 19 -6 26 -13 21 -20 93 -67 103 -67 5 0 16 -6 24 -14 9 -7 36 -25 61 -38
25 -14 63 -36 85 -48 40 -23 216 -113 225 -115 3 -1 30 -13 60 -27 82 -38 167
-74 240 -101 36 -14 74 -28 85 -32 11 -5 22 -9 25 -10 3 0 43 -14 90 -30 47
-16 90 -30 97 -31 7 -1 34 -9 60 -17 42 -13 83 -24 105 -27 4 -1 37 -10 73
-20 36 -10 65 -16 65 -14 0 3 8 1 18 -5 9 -5 35 -11 57 -15 41 -6 64 -10 150
-26 60 -11 105 -18 165 -25 25 -3 61 -8 80 -10 215 -27 722 -27 965 0 90 10
168 21 245 35 34 6 73 13 88 15 15 2 38 7 52 10 14 3 36 8 50 11 14 3 43 10
65 16 22 5 48 12 58 14 10 2 27 6 37 9 10 3 27 7 37 9 37 8 239 69 301 92 34
13 65 24 70 25 4 1 16 5 27 10 11 5 72 29 135 55 132 53 352 158 393 186 15
11 27 17 27 15 0 -5 147 80 181 104 10 7 20 11 24 10 4 -2 11 1 14 6 3 5 38
30 76 55 112 74 219 149 225 156 3 4 32 27 65 51 33 25 62 47 65 50 3 4 30 26
60 51 95 78 121 101 265 245 170 170 213 217 349 388 42 53 76 101 76 106 0 6
4 11 9 11 10 0 215 305 212 315 -2 4 2 11 7 14 15 10 123 205 191 346 90 186
204 472 235 590 2 6 6 17 9 25 9 23 36 123 68 255 39 162 39 163 54 250 3 22
11 67 17 100 5 33 12 74 14 90 1 17 5 53 9 80 5 47 12 124 20 225 6 80 5 483
-2 560 -3 41 -7 92 -7 112 -1 21 -3 38 -6 38 -3 0 -5 19 -4 42 1 24 -1 47 -4
52 -3 6 -7 24 -8 40 -1 17 -8 63 -14 101 -7 39 -14 79 -16 90 -18 107 -66 320
-75 331 -5 6 -6 14 -2 17 3 4 0 13 -7 22 -7 8 -10 15 -7 15 3 0 -1 21 -9 48
-8 26 -17 54 -19 62 -6 25 -55 174 -65 195 -5 11 -18 47 -30 80 -11 33 -27 74
-35 90 -7 17 -22 53 -33 80 -21 54 -118 256 -154 320 -82 150 -124 223 -139
245 -68 102 -139 211 -139 215 0 3 -8 13 -17 23 -10 11 -38 47 -63 82 -25 35
-49 68 -55 74 -5 6 -28 34 -50 61 -22 28 -44 55 -50 61 -5 6 -35 40 -65 75
-91 107 -344 353 -458 446 -59 48 -109 90 -112 93 -15 16 -232 170 -240 170
-6 0 -10 3 -10 8 0 6 -75 55 -175 115 -11 7 -31 19 -45 28 -14 9 -65 38 -115
64 -112 59 -119 65 -134 118 -7 23 -32 80 -55 127 -59 117 -66 129 -103 174
-7 8 -13 19 -13 23 0 8 -3 11 -99 108 -73 73 -103 101 -161 145 -24 19 -53 43
-65 54 -11 10 -36 29 -56 41 -20 13 -42 29 -50 37 -8 7 -34 29 -59 48 -82 64
-84 73 -39 187 34 85 39 124 19 148 -16 20 -74 14 -122 -12 -18 -9 -36 -18
-40 -19 -5 -1 -10 -3 -13 -4 -3 -1 -8 -3 -12 -5 -5 -1 -16 -5 -25 -8 -21 -8
-46 -16 -53 -17 -3 0 -23 -7 -45 -15 -44 -16 -47 -12 -26 31 19 37 27 84 20
107 -11 36 -93 11 -244 -75 -25 -14 -56 -29 -69 -33 -23 -7 -23 -7 6 36 59 89
71 152 31 163 -35 9 -37 8 -133 -39z"/>
</g>
</svg>
